<?xml version="1.0" encoding="UTF-8"?>
<svg width="350px" height="318px" viewBox="0 0 350 318" version="1.1" xmlns="http://www.w3.org/2000/svg" xmlns:xlink="http://www.w3.org/1999/xlink">
    <!-- Generator: Sketch 50.2 (55047) - http://www.bohemiancoding.com/sketch -->
    <title>Artboard 1</title>
    <desc>Created with Sketch.</desc>
    <defs></defs>
    <g id="Artboard-1" stroke="none" stroke-width="1" fill="none" fill-rule="evenodd">
        <path d="M75,304.5 C75,304.224168 75.2232925,304 75.5,304 C75.7758319,304 76,304.224168 76,304.5 C76,304.775832 75.7758319,305 75.5,305 C75.2232925,305 75,304.775832 75,304.5" id="Fill-66" fill="#FFFFFF"></path>
        <g id="PYP" transform="translate(17.000000, 12.000000)" fill="#c0aa7a">
            <path d="M64.1852,287.7475 C65.9212,287.3075 66.5422,285.2155 66.8402,284.2095 C66.9262,283.9205 66.9702,283.7775 67.0232,283.6935 C67.0792,283.6065 67.1942,283.5805 67.2822,283.6365 C67.3702,283.6915 67.3952,283.8075 67.3402,283.8955 C67.3122,283.9385 67.2532,284.1405 67.2012,284.3165 C66.9072,285.3055 66.2212,287.6195 64.2772,288.1125 C61.4022,288.8415 60.7472,291.4685 60.7412,291.4945 C60.7202,291.5805 60.6432,291.6395 60.5582,291.6395 C60.5432,291.6395 60.5292,291.6375 60.5152,291.6345 C60.4142,291.6105 60.3512,291.5095 60.3752,291.4085 C60.3812,291.3795 61.0832,288.5345 64.1852,287.7475" id="Fill-68"></path>
            <path d="M41.0751716,182.92 L44.3031716,185.92 C45.8231716,187.34 46.6311716,189.14 46.7231716,191.32 C46.8111716,193.504 46.0751716,195.432 44.5111716,197.112 C42.9351716,198.808 41.0551716,199.688 38.8671716,199.76 C36.6791716,199.836 34.8231716,199.164 33.2991716,197.744 L30.0751716,194.74 L41.0751716,182.92 Z M39.4471716,203.936 C42.7951716,203.808 45.5751716,202.552 47.7951716,200.168 C49.9991716,197.8 51.0431716,194.968 50.9231716,191.676 C50.8311716,188.84 49.8351716,186.268 47.9311716,183.952 L40.4591716,177 L16.1751716,203.092 L19.4591716,206.148 L27.4071716,197.604 L30.6351716,200.608 C33.1591716,202.96 36.0991716,204.072 39.4471716,203.936 Z" id="Fill-1"></path>
            <path d="M52.3271716,210.076 L60.5511716,204.268 L57.9631716,213.992 L52.3271716,210.076 Z M56.7151716,235.856 L66.4391716,199.22 L63.2431716,197 L32.1751716,218.824 L36.0191716,221.492 L48.9631716,212.444 L56.9191716,217.968 L52.8871716,233.2 L56.7151716,235.856 Z" id="Fill-3"></path>
            <path d="M91.105783,218.958725 C91.337783,217.346725 91.245783,215.958725 90.833783,214.806725 C90.045783,212.570725 88.589783,210.938725 86.465783,209.906725 C84.309783,208.862725 82.153783,208.718725 79.997783,209.482725 C77.837783,210.242725 76.289783,211.586725 75.353783,213.518725 C74.393783,215.494725 74.273783,217.522725 74.993783,219.594725 C75.713783,221.666725 77.037783,223.642725 78.977783,225.518725 C80.277783,226.994725 81.245783,228.626725 81.881783,230.422725 C82.501783,232.210725 82.369783,234.010725 81.493783,235.822725 C80.613783,237.634725 79.265783,238.858725 77.441783,239.486725 C75.621783,240.118725 73.889783,240.034725 72.237783,239.234725 C70.605783,238.442725 69.481783,237.162725 68.869783,235.398725 C68.301783,233.802725 68.465783,231.782725 69.361783,229.330725 L64.801783,228.854725 C63.977783,231.466725 63.965783,233.910725 64.769783,236.190725 C65.773783,239.154725 67.697783,241.326725 70.553783,242.710725 C73.389783,244.086725 76.261783,244.274725 79.161783,243.266725 C82.061783,242.262725 84.161783,240.422725 85.457783,237.746725 C86.757783,235.070725 86.893783,232.274725 85.865783,229.358725 C84.981783,226.794725 83.461783,224.482725 81.309783,222.410725 C80.273783,221.138725 79.549783,219.942725 79.137783,218.822725 C78.769783,217.690725 78.853783,216.574725 79.385783,215.474725 C79.929783,214.362725 80.733783,213.618725 81.801783,213.246725 C82.873783,212.874725 83.869783,212.914725 84.789783,213.362725 C85.725783,213.814725 86.377783,214.590725 86.745783,215.686725 C86.929783,216.214725 86.949783,217.190725 86.813783,218.610725 L91.105783,218.958725 Z" id="Fill-5"></path>
            <polygon id="Fill-7" points="96.3911716 254.924 106.755172 224.912 114.787172 227.684 116.059172 224.008 95.7591716 217 94.4871716 220.672 102.543172 223.456 92.1751716 253.468"></polygon>
            <path d="M119.631172,241.196 L125.107172,232.748 L126.319172,242.732 L119.631172,241.196 Z M128.747172,262.456 L133.287172,263.5 L128.695172,225.868 L124.903172,225 L104.175172,256.808 L108.735172,257.856 L117.391172,244.644 L126.827172,246.816 L128.747172,262.456 Z" id="Fill-9"></path>
            <path d="M177.96476,259.737463 C178.44076,258.917463 178.68876,258.065463 178.70076,257.173463 C178.70876,256.713463 178.65276,256.237463 178.52876,255.757463 C178.15676,254.281463 177.29276,253.145463 175.93676,252.345463 C175.01676,251.821463 174.06476,251.537463 173.07276,251.505463 L173.00876,255.369463 C173.19276,255.389463 173.35676,255.433463 173.50476,255.501463 C173.86476,255.721463 174.10476,256.069463 174.22876,256.553463 C174.29276,256.753463 174.32076,256.933463 174.31676,257.101463 C174.31276,257.413463 174.22476,257.725463 174.05276,258.037463 C173.81676,258.413463 173.50876,258.649463 173.12876,258.737463 C172.99276,258.785463 172.87676,258.809463 172.78076,258.809463 C172.61276,258.805463 172.43276,258.745463 172.23676,258.625463 C171.94476,258.457463 171.43676,258.033463 170.72076,257.361463 C169.76476,256.321463 168.96076,255.613463 168.30476,255.237463 C167.53676,254.765463 166.70076,254.517463 165.79276,254.501463 C165.32876,254.493463 164.84876,254.553463 164.35276,254.677463 C163.02476,255.037463 162.00476,255.785463 161.29276,256.929463 C160.88076,257.633463 160.67276,258.357463 160.66076,259.097463 C160.65276,259.493463 160.70476,259.901463 160.81276,260.317463 C161.12476,261.561463 161.83276,262.513463 162.94476,263.173463 C163.71276,263.601463 164.50076,263.821463 165.31276,263.833463 L165.55676,263.837463 L165.62476,260.025463 C165.49276,260.021463 165.40876,260.013463 165.37676,259.993463 C165.26076,259.929463 165.16476,259.769463 165.08876,259.521463 C165.07276,259.405463 165.06476,259.289463 165.06876,259.173463 C165.06876,259.009463 165.12476,258.825463 165.22476,258.629463 C165.32876,258.469463 165.43676,258.369463 165.55276,258.337463 C165.58476,258.321463 165.63276,258.317463 165.70076,258.317463 C165.76876,258.317463 165.84076,258.345463 165.92476,258.397463 C166.10476,258.497463 166.47676,258.825463 167.04876,259.381463 C168.10076,260.505463 168.93676,261.269463 169.55676,261.677463 C169.36876,262.217463 168.89676,262.853463 168.14076,263.585463 C166.72876,264.949463 165.11676,265.613463 163.30076,265.585463 C161.46876,265.553463 159.88476,264.845463 158.55276,263.461463 C157.22476,262.073463 156.57676,260.377463 156.60876,258.361463 C156.64476,256.329463 157.35676,254.581463 158.74076,253.109463 C160.12876,251.637463 162.16476,250.677463 164.84876,250.225463 L167.47276,250.221463 L167.53676,246.481463 C165.62076,246.433463 164.33676,246.277463 163.68076,246.021463 C163.02476,245.761463 162.28076,245.173463 161.45676,244.261463 C160.62876,243.345463 160.22476,242.269463 160.24476,241.033463 C160.26876,239.793463 160.68476,238.781463 161.49676,237.993463 C162.31276,237.209463 163.23276,236.821463 164.25676,236.837463 C165.29676,236.857463 166.18876,237.249463 166.93676,238.025463 C167.38876,238.493463 167.86076,239.401463 168.35276,240.749463 L172.34076,239.253463 C171.88476,237.693463 171.22076,236.477463 170.34476,235.605463 C168.72076,233.909463 166.71276,233.041463 164.32076,233.001463 C161.94476,232.961463 159.93676,233.741463 158.29676,235.337463 C156.66076,236.937463 155.82476,238.813463 155.78876,240.957463 C155.75276,243.137463 156.90876,245.525463 159.26076,248.125463 C158.18476,248.225463 156.90476,249.037463 155.42876,250.565463 C153.30876,252.757463 152.22476,255.333463 152.17676,258.285463 C152.12876,261.257463 153.16876,263.849463 155.30076,266.057463 C157.43676,268.265463 160.08076,269.393463 163.23276,269.449463 C166.40476,269.501463 169.10876,268.433463 171.34076,266.241463 C172.70076,264.941463 173.56076,263.717463 173.92876,262.569463 C175.82076,262.021463 177.16476,261.077463 177.96476,259.737463" id="Fill-11"></path>
            <path d="M201.415172,230.144363 L205.715172,229.168363 C207.743172,228.708363 209.683172,229.056363 211.539172,230.208363 C213.391172,231.364363 214.575172,233.060363 215.083172,235.300363 C215.591172,237.552363 215.259172,239.604363 214.087172,241.452363 C212.915172,243.304363 211.315172,244.460363 209.287172,244.916363 L204.987172,245.892363 L201.415172,230.144363 Z M210.155172,248.732363 C213.519172,247.972363 216.087172,246.168363 217.867172,243.328363 C219.643172,240.484363 220.171172,237.480363 219.451172,234.308363 C218.735172,231.148363 216.987172,228.696363 214.199172,226.940363 C211.807172,225.416363 209.115172,224.792363 206.127172,225.060363 L196.175172,227.320363 L204.063172,262.076363 L208.435172,261.088363 L205.851172,249.708363 L210.155172,248.732363 Z" id="Fill-13"></path>
            <path d="M229.115172,228.732 L235.447172,236.548 L228.967172,238.8 L229.115172,228.732 Z M224.827172,222.276 L224.175172,260.236 L228.595172,258.7 L228.903172,242.912 L238.051172,239.732 L247.991172,251.96 L252.391172,250.432 L228.499172,221 L224.827172,222.276 Z" id="Fill-15"></path>
            <path d="M261.162344,242.571053 C263.986344,241.167053 265.886344,239.007053 266.862344,236.099053 C267.842344,233.187053 267.666344,230.403053 266.346344,227.739053 C265.022344,225.079053 262.894344,223.259053 259.954344,222.287053 C257.386344,221.423053 254.626344,221.211053 251.670344,221.647053 C250.030344,221.687053 248.642344,221.531053 247.506344,221.171053 C246.386344,220.771053 245.554344,220.023053 245.006344,218.931053 C244.458344,217.823053 244.362344,216.731053 244.722344,215.655053 C245.082344,214.583053 245.722344,213.819053 246.638344,213.363053 C247.570344,212.899053 248.578344,212.855053 249.674344,213.235053 C250.206344,213.415053 250.990344,213.991053 252.030344,214.971053 L254.926344,211.783053 C253.794344,210.615053 252.642344,209.839053 251.478344,209.463053 C249.226344,208.719053 247.042344,208.871053 244.930344,209.923053 C242.786344,210.987053 241.354344,212.611053 240.638344,214.783053 C239.918344,216.955053 240.038344,219.003053 240.994344,220.927053 C241.974344,222.895053 243.502344,224.227053 245.582344,224.923053 C247.662344,225.623053 250.038344,225.779053 252.702344,225.395053 C254.666344,225.263053 256.554344,225.499053 258.362344,226.091053 C260.158344,226.695053 261.498344,227.899053 262.398344,229.703053 C263.294344,231.507053 263.434344,233.319053 262.826344,235.147053 C262.210344,236.975053 261.082344,238.295053 259.442344,239.111053 C257.814344,239.919053 256.114344,240.027053 254.346344,239.431053 C252.738344,238.903053 251.238344,237.539053 249.846344,235.335053 L246.682344,238.651053 C248.242344,240.899053 250.170344,242.403053 252.466344,243.159053 C255.422344,244.179053 258.322344,243.983053 261.162344,242.571053" id="Fill-17"></path>
            <polygon id="Fill-19" points="286.759172 231.36 269.123172 204.952 276.191172 200.232 274.031172 197 256.175172 208.928 258.331172 212.16 265.419172 207.428 283.051172 233.836"></polygon>
            <path d="M284.423064,198.685092 C284.551064,194.761092 286.007064,191.501092 288.783064,188.909092 C291.571064,186.305092 294.927064,185.077092 298.855064,185.217092 C302.783064,185.357092 306.107064,186.889092 308.835064,189.813092 C311.583064,192.757092 312.891064,196.189092 312.755064,200.109092 C312.619064,204.033092 311.155064,207.293092 308.367064,209.897092 C305.591064,212.489092 302.243064,213.717092 298.323064,213.581092 C294.399064,213.445092 291.067064,211.905092 288.319064,208.957092 C285.591064,206.037092 284.291064,202.613092 284.423064,198.685092 M285.019064,212.033092 C288.435064,215.693092 292.679064,217.609092 297.755064,217.785092 C302.831064,217.961092 307.259064,216.285092 311.039064,212.761092 C314.827064,209.221092 316.811064,204.913092 316.987064,199.837092 C317.163064,194.761092 315.543064,190.393092 312.131064,186.737092 C308.739064,183.101092 304.503064,181.193092 299.423064,181.013092 C294.339064,180.833092 289.903064,182.509092 286.111064,186.045092 C282.335064,189.573092 280.359064,193.877092 280.187064,198.957092 C280.019064,204.041092 281.631064,208.401092 285.019064,212.033092" id="Fill-21"></path>
            <polygon id="Fill-23" points="47.4591716 247.808 39.9631716 242.992 45.2111716 234.828 52.7071716 239.648 53.4231716 238.536 44.8151716 233 32.1751716 252.66 33.2871716 253.376 39.2511716 244.104 46.7431716 248.92"></polygon>
            <path d="M55.4951716,252.728 L55.5031716,251.264 C53.6711716,251.016 52.1591716,251.38 50.9551716,252.352 L52.5111716,249.664 L51.3711716,249 L44.1751716,261.412 L45.3231716,262.076 L49.4471716,254.956 C49.9831716,254.032 50.9071716,253.34 52.2111716,252.892 C53.5191716,252.436 54.6111716,252.384 55.4951716,252.728" id="Fill-25"></path>
            <path d="M58.133636,254.745807 C59.881636,254.169807 61.569636,254.293807 63.201636,255.117807 C64.833636,255.941807 65.941636,257.229807 66.513636,258.973807 C66.841636,259.965807 66.917636,260.977807 66.741636,262.013807 L55.497636,256.341807 C56.213636,255.629807 57.089636,255.097807 58.133636,254.745807 M62.301636,267.329807 C60.553636,267.901807 58.865636,267.777807 57.233636,266.953807 C55.597636,266.129807 54.493636,264.849807 53.917636,263.117807 C53.345636,261.381807 53.465636,259.697807 54.293636,258.065807 C54.409636,257.829807 54.537636,257.617807 54.669636,257.421807 L67.465636,263.877807 C68.325636,262.173807 68.453636,260.393807 67.845636,258.533807 C67.153636,256.433807 65.813636,254.881807 63.829636,253.877807 C61.861636,252.885807 59.821636,252.733807 57.717636,253.425807 C55.609636,254.113807 54.053636,255.453807 53.049636,257.441807 C52.057636,259.409807 51.909636,261.445807 52.605636,263.557807 C53.301636,265.665807 54.633636,267.217807 56.601636,268.209807 C58.585636,269.209807 60.633636,269.361807 62.741636,268.661807 C63.445636,268.433807 63.933636,268.237807 64.205636,268.065807 L63.177636,266.989807 C62.889636,267.117807 62.597636,267.229807 62.301636,267.329807" id="Fill-27"></path>
            <path d="M73.0176392,261.282551 C72.1456392,260.910551 71.2696392,260.906551 70.3856392,261.266551 C69.5016392,261.626551 68.8736392,262.246551 68.5016392,263.114551 C68.1296392,263.990551 68.1216392,264.866551 68.4816392,265.746551 C68.7056392,266.310551 69.2136392,267.090551 70.0016392,268.082551 C70.6376392,269.010551 71.0336392,269.678551 71.1976392,270.082551 C71.5136392,270.838551 71.5136392,271.586551 71.1976392,272.326551 C70.8736392,273.086551 70.3296392,273.618551 69.5656392,273.922551 C68.8016392,274.226551 68.0496392,274.218551 67.3096392,273.906551 C66.5696392,273.590551 66.0456392,273.054551 65.7416392,272.294551 C65.4336392,271.538551 65.4456392,270.766551 65.7776392,269.986551 L64.4496392,269.782551 C64.0616392,270.694551 64.0856392,271.694551 64.5176392,272.782551 C64.9536392,273.870551 65.7136392,274.646551 66.8016392,275.110551 C67.8856392,275.570551 68.9696392,275.578551 70.0576392,275.134551 C71.1416392,274.694551 71.9176392,273.926551 72.3816392,272.830551 C72.8376392,271.766551 72.8456392,270.686551 72.4136392,269.590551 C72.1336392,268.898551 71.5496392,267.998551 70.6696392,266.894551 C70.1416392,266.130551 69.8176392,265.586551 69.6936392,265.258551 C69.4736392,264.706551 69.4776392,264.166551 69.7056392,263.626551 C69.9336392,263.090551 70.3216392,262.710551 70.8696392,262.486551 C71.4216392,262.266551 71.9616392,262.270551 72.5016392,262.498551 C73.0496392,262.730551 73.4176392,263.094551 73.6016392,263.578551 C73.7936392,264.066551 73.7856392,264.670551 73.5896392,265.386551 L74.8216392,265.406551 L74.8456392,265.346551 C75.1536392,264.626551 75.1456392,263.866551 74.8256392,263.074551 C74.4936392,262.250551 73.8896392,261.650551 73.0176392,261.282551" id="Fill-29"></path>
            <path d="M86.9054465,265.486611 C84.8294465,264.746611 82.7894465,264.850611 80.7854465,265.798611 C78.7814465,266.742611 77.4054465,268.262611 76.6614465,270.346611 C75.9214465,272.434611 76.0254465,274.482611 76.9774465,276.486611 C77.9294465,278.490611 79.4454465,279.866611 81.5214465,280.606611 C83.6174465,281.350611 85.6654465,281.246611 87.6694465,280.286611 C88.0774465,280.094611 88.4574465,279.878611 88.8134465,279.642611 L87.6774465,278.690611 C87.4814465,278.810611 87.2774465,278.918611 87.0694465,279.018611 C85.4054465,279.810611 83.7134465,279.898611 81.9894465,279.282611 C80.2774465,278.670611 79.0294465,277.538611 78.2454465,275.886611 C77.4614465,274.230611 77.3734465,272.542611 77.9894465,270.818611 C78.6014465,269.098611 79.7374465,267.842611 81.3894465,267.058611 C83.0454465,266.270611 84.7294465,266.182611 86.4374465,266.794611 C88.1614465,267.406611 89.4214465,268.542611 90.2134465,270.190611 C90.3094465,270.410611 90.3974465,270.630611 90.4734465,270.846611 L91.9534465,270.826611 C91.8254465,270.422611 91.6694465,270.014611 91.4734465,269.606611 C90.5254465,267.606611 89.0014465,266.234611 86.9054465,265.486611" id="Fill-31"></path>
            <path d="M106.834748,277.52983 L106.142748,280.02983 C105.566748,281.19783 104.682748,282.11783 103.490748,282.79383 C101.890748,283.70183 100.206748,283.90983 98.4467475,283.42183 C96.6827475,282.93383 95.3507475,281.89783 94.4467475,280.30983 C93.5427475,278.72183 93.3347475,277.04583 93.8227475,275.28183 C94.3107475,273.52183 95.3507475,272.18583 96.9467475,271.27783 C98.5387475,270.36983 100.218748,270.15783 101.982748,270.64583 C103.746748,271.13383 105.078748,272.17783 105.986748,273.78183 C106.662748,274.97383 106.942748,276.22183 106.834748,277.52983 Z M107.742748,274.24983 C107.590748,273.85383 107.410748,273.46183 107.206748,273.08983 C106.114748,271.16183 104.498748,269.90183 102.350748,269.30983 C100.230748,268.72183 98.2027475,268.96983 96.2707475,270.06183 C94.3387475,271.14983 93.0787475,272.76583 92.4827475,274.91383 C91.8947475,277.03383 92.1507475,279.06583 93.2427475,280.99783 C94.3347475,282.92983 95.9467475,284.18983 98.0707475,284.77783 C100.214748,285.36983 102.250748,285.11783 104.182748,284.01783 C104.550748,283.79783 104.902748,283.55783 105.238748,283.29783 L104.458748,286.11383 L105.730748,286.46983 L109.558748,272.64183 L108.282748,272.28983 L107.742748,274.24983 Z" id="Fill-33"></path>
            <path d="M129.590329,277.131432 C127.422329,276.751432 125.426329,277.195432 123.606329,278.463432 C121.790329,279.735432 120.690329,281.459432 120.310329,283.639432 C119.922329,285.823432 120.370329,287.823432 121.646329,289.639432 C122.922329,291.459432 124.642329,292.559432 126.814329,292.939432 C129.006329,293.323432 131.010329,292.875432 132.822329,291.595432 C133.194329,291.335432 133.534329,291.059432 133.842329,290.767432 L132.562329,290.023432 C132.390329,290.171432 132.210329,290.311432 132.018329,290.447432 C130.510329,291.503432 128.858329,291.871432 127.058329,291.555432 C125.266329,291.239432 123.846329,290.335432 122.794329,288.835432 C121.742329,287.335432 121.374329,285.687432 121.690329,283.883432 C122.006329,282.083432 122.918329,280.655432 124.414329,279.603432 C125.914329,278.551432 127.558329,278.183432 129.350329,278.499432 C131.150329,278.815432 132.582329,279.719432 133.638329,281.215432 C133.770329,281.419432 133.894329,281.619432 134.006329,281.815432 L135.458329,281.551432 C135.266329,281.171432 135.042329,280.799432 134.782329,280.427432 C133.514329,278.615432 131.782329,277.519432 129.590329,277.131432" id="Fill-35"></path>
            <path d="M150.779407,285.808266 C150.567407,287.624266 149.743407,289.100266 148.307407,290.228266 C146.871407,291.360266 145.247407,291.816266 143.431407,291.604266 C141.611407,291.392266 140.135407,290.572266 138.999407,289.140266 C137.863407,287.712266 137.399407,286.084266 137.611407,284.268266 C137.827407,282.452266 138.651407,280.976266 140.087407,279.832266 C141.527407,278.692266 143.151407,278.224266 144.967407,278.440266 C146.783407,278.652266 148.263407,279.476266 149.395407,280.920266 C150.531407,282.364266 150.991407,283.992266 150.779407,285.808266 M145.127407,277.060266 C142.943407,276.804266 140.975407,277.364266 139.235407,278.732266 C137.495407,280.108266 136.491407,281.896266 136.235407,284.108266 C135.979407,286.300266 136.539407,288.264266 137.915407,290.004266 C139.295407,291.744266 141.079407,292.744266 143.267407,293.000266 C145.479407,293.260266 147.447407,292.700266 149.179407,291.320266 C150.911407,289.944266 151.903407,288.156266 152.159407,285.968266 C152.419407,283.760266 151.863407,281.788266 150.495407,280.052266 C149.127407,278.316266 147.339407,277.316266 145.127407,277.060266" id="Fill-37"></path>
            <path d="M170.643172,282.161829 C169.795172,281.357829 168.783172,280.969829 167.603172,281.001829 C166.423172,281.033829 165.435172,281.473829 164.631172,282.321829 C164.403172,282.557829 164.207172,282.805829 164.039172,283.061829 C163.867172,282.801829 163.667172,282.565829 163.439172,282.349829 C162.591172,281.545829 161.579172,281.161829 160.399172,281.189829 C159.263172,281.221829 158.303172,281.641829 157.507172,282.457829 L157.495172,282.109829 L156.175172,282.145829 L156.551172,296.485829 L157.875172,296.449829 L157.579172,285.265829 C157.627172,284.549829 157.895172,283.933829 158.391172,283.425829 C158.951172,282.837829 159.631172,282.533829 160.435172,282.509829 C161.239172,282.493829 161.939172,282.757829 162.539172,283.317829 C163.091172,283.829829 163.399172,284.469829 163.467172,285.225829 L163.447172,285.229829 L163.739172,296.297829 L165.043172,296.261829 L164.759172,285.409829 C164.735172,284.549829 165.007172,283.825829 165.571172,283.237829 C166.135172,282.649829 166.823172,282.345829 167.639172,282.325829 C168.443172,282.301829 169.143172,282.569829 169.743172,283.129829 C170.295172,283.641829 170.599172,284.281829 170.651172,285.037829 L170.635172,285.037829 L170.927172,296.109829 L172.247172,296.077829 L171.959172,285.005829 C171.887172,283.893829 171.447172,282.945829 170.643172,282.161829" id="Fill-39"></path>
            <path d="M189.360125,289.182493 C188.212125,290.602493 186.728125,291.414493 184.912125,291.610493 C183.092125,291.810493 181.468125,291.338493 180.044125,290.194493 C178.616125,289.054493 177.804125,287.574493 177.608125,285.754493 C177.408125,283.934493 177.884125,282.310493 179.028125,280.878493 C180.180125,279.446493 181.660125,278.630493 183.480125,278.430493 C185.296125,278.234493 186.920125,278.714493 188.348125,279.866493 C189.776125,281.018493 190.588125,282.506493 190.784125,284.322493 C190.984125,286.142493 190.508125,287.762493 189.360125,289.182493 M189.228125,278.770493 C187.508125,277.386493 185.540125,276.810493 183.328125,277.054493 C181.136125,277.290493 179.348125,278.270493 177.952125,279.998493 C176.564125,281.722493 175.988125,283.690493 176.228125,285.906493 C176.464125,288.098493 177.448125,289.886493 179.180125,291.278493 C180.912125,292.670493 182.872125,293.246493 185.064125,293.010493 C187.276125,292.766493 189.072125,291.782493 190.452125,290.054493 C191.832125,288.322493 192.404125,286.362493 192.168125,284.174493 C191.928125,281.958493 190.944125,280.162493 189.228125,278.770493" id="Fill-41"></path>
            <polygon id="Fill-43" points="200.175172 269.24 204.375172 292.232 205.675172 291.992 201.475172 269"></polygon>
            <path d="M210.601329,277.496924 C211.585329,275.940924 212.969329,274.968924 214.757329,274.568924 C216.541329,274.164924 218.209329,274.460924 219.765329,275.444924 C220.645329,276.000924 221.345329,276.740924 221.865329,277.648924 L209.577329,280.404924 C209.677329,279.396924 210.021329,278.428924 210.601329,277.496924 M221.809329,284.572924 C220.825329,286.124924 219.437329,287.100924 217.653329,287.500924 C215.869329,287.900924 214.205329,287.612924 212.661329,286.640924 C211.113329,285.664924 210.141329,284.284924 209.741329,282.496924 C209.685329,282.240924 209.645329,281.996924 209.625329,281.760924 L223.609329,278.628924 C223.193329,276.768924 222.161329,275.312924 220.513329,274.256924 C218.645329,273.076924 216.625329,272.724924 214.453329,273.212924 C212.301329,273.692924 210.633329,274.868924 209.441329,276.740924 C208.253329,278.608924 207.901329,280.632924 208.385329,282.804924 C208.869329,284.952924 210.045329,286.624924 211.921329,287.812924 C213.797329,289.000924 215.809329,289.352924 217.961329,288.872924 C220.133329,288.388924 221.809329,287.204924 222.993329,285.324924 C223.397329,284.700924 223.649329,284.240924 223.749329,283.932924 L222.269329,283.756924 C222.129329,284.036924 221.977329,284.308924 221.809329,284.572924" id="Fill-45"></path>
            <path d="M238.023148,280.228565 C237.135148,281.840565 235.811148,282.896565 234.055148,283.408565 C232.311148,283.912565 230.635148,283.724565 229.031148,282.840565 C227.427148,281.956565 226.371148,280.636565 225.859148,278.880565 C225.355148,277.124565 225.539148,275.440565 226.423148,273.836565 C227.307148,272.232565 228.623148,271.180565 230.367148,270.672565 C232.127148,270.164565 233.807148,270.348565 235.415148,271.228565 C235.623148,271.348565 235.823148,271.476565 236.007148,271.604565 L237.199148,270.728565 C236.859148,270.472565 236.495148,270.232565 236.099148,270.012565 C234.159148,268.948565 232.119148,268.720565 229.983148,269.340565 C227.867148,269.952565 226.271148,271.228565 225.199148,273.168565 C224.123148,275.108565 223.895148,277.144565 224.515148,279.268565 C225.127148,281.396565 226.407148,282.996565 228.355148,284.068565 C230.299148,285.140565 232.331148,285.368565 234.447148,284.756565 C236.583148,284.140565 238.187148,282.852565 239.251148,280.904565 C239.467148,280.508565 239.651148,280.112565 239.799148,279.712565 L238.323148,279.608565 C238.235148,279.816565 238.135148,280.024565 238.023148,280.228565" id="Fill-47"></path>
            <path d="M248.339172,263.488 C246.983172,262.84 245.507172,262.8 243.923172,263.364 C242.443172,263.884 241.367172,264.832 240.683172,266.208 L237.423172,257 L236.175172,257.444 L243.983172,279.472 L245.227172,279.032 L241.419172,268.28 C241.455172,267.824 241.595172,267.348 241.843172,266.852 C242.379172,265.76 243.219172,265.012 244.363172,264.608 C245.495172,264.208 246.619172,264.264 247.739172,264.78 C248.855172,265.296 249.619172,266.132 250.027172,267.284 L253.187172,276.212 L254.435172,275.768 L251.231172,266.72 C250.659172,265.212 249.695172,264.136 248.339172,263.488" id="Fill-49"></path>
            <path d="M262.927172,257 L261.707172,257.512 L265.147172,265.66 C265.615172,266.776 265.615172,267.904 265.147172,269.044 C264.675172,270.18 263.879172,270.984 262.763172,271.456 C261.567172,271.96 260.395172,271.98 259.255172,271.516 C258.111172,271.068 257.299172,270.284 256.831172,269.168 L253.395172,261.02 L252.175172,261.532 L255.655172,269.788 C256.319172,271.268 257.339172,272.288 258.727172,272.852 C260.111172,273.416 261.631172,273.348 263.287172,272.652 C264.839172,271.996 265.899172,270.976 266.463172,269.592 C267.027172,268.204 267.007172,266.76 266.411172,265.252 L262.927172,257 Z" id="Fill-51"></path>
            <path d="M282.520768,260.608 C281.948768,262.356 280.848768,263.644 279.216768,264.468 C277.584768,265.296 275.896768,265.428 274.156768,264.856 C272.416768,264.288 271.132768,263.188 270.304768,261.556 C269.480768,259.924 269.348768,258.236 269.916768,256.492 C270.484768,254.744 271.580768,253.46 273.212768,252.632 C274.844768,251.804 276.532768,251.676 278.280768,252.248 C279.560768,252.676 280.600768,253.392 281.392768,254.396 L282.640768,256.86 C282.972768,258.1 282.932768,259.348 282.520768,260.608 Z M280.156768,249 L278.976768,249.6 L279.896768,251.412 C279.516768,251.224 279.124768,251.056 278.716768,250.916 C276.620768,250.236 274.576768,250.404 272.592768,251.408 C270.628768,252.404 269.296768,253.952 268.604768,256.052 C267.904768,258.156 268.060768,260.196 269.068768,262.184 C270.064768,264.148 271.616768,265.476 273.728768,266.168 C275.840768,266.856 277.876768,266.704 279.844768,265.708 C281.828768,264.7 283.164768,263.14 283.848768,261.028 C283.960768,260.648 284.064768,260.264 284.148768,259.872 C284.772768,261.348 284.828768,262.88 284.308768,264.464 C283.736768,266.212 282.640768,267.496 281.020768,268.32 C279.388768,269.144 277.700768,269.272 275.964768,268.692 C275.732768,268.624 275.512768,268.544 275.304768,268.452 L274.296768,269.536 C274.680768,269.728 275.084768,269.896 275.516768,270.032 C277.632768,270.728 279.680768,270.572 281.652768,269.572 C283.628768,268.572 284.956768,267.012 285.640768,264.9 C286.320768,262.852 286.172768,260.864 285.192768,258.94 L280.156768,249 Z" id="Fill-53"></path>
            <path d="M297.068343,246.32 L298.432343,248.528 C298.900343,249.74 298.976343,251.016 298.656343,252.352 C298.236343,254.14 297.244343,255.516 295.692343,256.48 C294.136343,257.44 292.468343,257.716 290.688343,257.296 C288.908343,256.884 287.540343,255.896 286.576343,254.34 C285.616343,252.784 285.344343,251.112 285.760343,249.324 C286.180343,247.54 287.164343,246.164 288.720343,245.204 C290.276343,244.24 291.952343,243.972 293.740343,244.396 C295.072343,244.708 296.184343,245.352 297.068343,246.32 Z M294.208343,241.696 L295.276343,243.424 C294.884343,243.268 294.476343,243.136 294.064343,243.028 C291.908343,242.52 289.884343,242.852 287.992343,244.02 C286.116343,245.18 284.924343,246.836 284.408343,248.996 C283.896343,251.152 284.228343,253.176 285.396343,255.072 C286.556343,256.944 288.216343,258.136 290.376343,258.648 C292.536343,259.156 294.556343,258.832 296.428343,257.672 C298.324343,256.504 299.520343,254.836 300.024343,252.672 C300.116343,252.256 300.176343,251.832 300.216343,251.408 L301.752343,253.9 L302.876343,253.204 L295.332343,241 L294.208343,241.696 Z" id="Fill-55"></path>
            <path d="M36.7431716,239.284 C36.7431716,238.024 35.7231716,237 34.4591716,237 C33.1991716,237 32.1751716,238.024 32.1751716,239.284 C32.1751716,240.544 33.1991716,241.568 34.4591716,241.568 C35.7231716,241.568 36.7431716,240.544 36.7431716,239.284" id="Fill-57"></path>
            <path d="M12.9115346,221.562317 C5.96753456,219.802317 3.48353456,211.434317 2.29153456,207.410317 C1.94753456,206.250317 1.77153456,205.678317 1.55953456,205.346317 C1.33553456,204.998317 0.875534562,204.894317 0.523534562,205.118317 C0.171534562,205.338317 0.0715345623,205.802317 0.291534562,206.154317 C0.399534562,206.326317 0.639534562,207.130317 0.847534562,207.838317 C2.02353456,211.794317 4.76753456,221.050317 12.5395346,223.018317 C24.0435346,225.938317 26.6635346,236.442317 26.6875346,236.550317 C26.7715346,236.894317 27.0795346,237.130317 27.4195346,237.130317 C27.4795346,237.130317 27.5355346,237.122317 27.5915346,237.106317 C27.9955346,237.010317 28.2475346,236.610317 28.1515346,236.206317 C28.1275346,236.090317 25.3195346,224.710317 12.9115346,221.562317" id="Fill-59"></path>
            <path d="M155.557361,203.337642 C155.541361,203.405642 153.733361,210.245642 149.953361,212.253642 C148.781361,212.877642 147.557361,212.949642 146.213361,212.473642 C144.705361,211.937642 143.701361,211.045642 143.141361,209.741642 C141.617361,206.205642 143.901361,200.969642 143.933361,200.901642 C143.977361,200.793642 147.525361,192.637642 154.961361,188.993642 C157.037361,192.025642 157.237361,196.837642 155.557361,203.337642 M168.765361,189.565642 C168.973361,189.749642 169.177361,189.941642 169.377361,190.145642 C174.669361,195.645642 174.433361,207.117642 174.429361,207.221642 C174.297361,210.653642 173.009361,219.565642 168.713361,219.565642 L168.705361,219.565642 C164.501361,219.405642 163.233361,210.625642 163.105361,207.233642 C163.101361,207.117642 162.849361,195.665642 168.153361,190.153642 C168.353361,189.945642 168.557361,189.749642 168.765361,189.565642 M182.565361,189.001642 C189.989361,192.645642 193.553361,200.801642 193.605361,200.921642 C193.629361,200.973642 195.917361,206.189642 194.393361,209.741642 C193.833361,211.045642 192.829361,211.937642 191.321361,212.473642 C189.973361,212.949642 188.749361,212.877642 187.577361,212.253642 C183.801361,210.249642 181.993361,203.409642 181.973361,203.337642 C180.293361,196.841642 180.493361,192.033642 182.565361,189.001642 M84.6773606,170.137642 C101.885361,161.369642 123.293361,150.457642 130.077361,157.461642 C130.125361,157.509642 130.177361,157.557642 130.229361,157.593642 C130.253361,157.609642 132.437361,159.205642 132.485361,162.493642 C132.533361,165.801642 130.377361,171.421642 119.861361,179.385642 C119.437361,179.681642 115.701361,182.405642 115.185361,185.521642 C115.001361,186.625642 115.245361,187.681642 115.889361,188.577642 C118.701361,192.457642 127.733361,188.869642 128.749361,188.445642 C128.921361,188.373642 145.977361,181.505642 153.329361,187.253642 C145.641361,191.325642 142.057361,199.553642 141.869361,200.001642 C141.753361,200.249642 139.157361,206.177642 141.065361,210.625642 C141.877361,212.513642 143.353361,213.849642 145.461361,214.597642 C147.409361,215.285642 149.281361,215.169642 151.017361,214.241642 C155.673361,211.761642 157.657361,204.221642 157.737361,203.901642 C159.525361,197.001642 159.305361,191.709642 157.085361,188.121642 C158.749361,187.565642 160.573361,187.249642 162.569361,187.269642 C164.141361,187.285642 165.573361,187.621642 166.849361,188.265642 C166.741361,188.369642 166.633361,188.477642 166.529361,188.589642 C160.577361,194.773642 160.837361,206.785642 160.849361,207.309642 C160.873361,207.901642 161.485361,221.821642 168.817361,221.821642 C168.861361,221.821642 168.905361,221.821642 168.945361,221.817642 C176.057361,221.521642 176.661361,207.893642 176.681361,207.293642 C176.697361,206.785642 176.953361,194.773642 171.005361,188.585642 C170.897361,188.477642 170.793361,188.369642 170.685361,188.265642 C171.961361,187.621642 173.389361,187.289642 174.965361,187.269642 C176.945361,187.253642 178.781361,187.569642 180.445361,188.125642 C178.225361,191.713642 178.005361,197.005642 179.793361,203.901642 C179.873361,204.221642 181.861361,211.765642 186.517361,214.245642 C188.253361,215.169642 190.125361,215.289642 192.073361,214.597642 C194.177361,213.853642 195.653361,212.517642 196.465361,210.629642 C198.377361,206.181642 195.777361,200.253642 195.673361,200.021642 C195.477361,199.557642 191.893361,191.325642 184.201361,187.253642 C191.549361,181.513642 208.609361,188.377642 208.781361,188.445642 C209.801361,188.869642 218.833361,192.461642 221.641361,188.581642 C222.289361,187.681642 222.533361,186.625642 222.349361,185.521642 C221.829361,182.405642 218.093361,179.685642 217.701361,179.409642 C207.201361,171.457642 205.021361,165.849642 205.045361,162.545642 C205.069361,159.273642 207.217361,157.661642 207.301361,157.597642 C207.357361,157.557642 207.409361,157.509642 207.457361,157.461642 C214.237361,150.457642 235.649361,161.369642 252.853361,170.141642 C268.157361,177.937642 276.965361,182.201642 279.985361,179.121642 C281.089361,178.001642 281.541361,176.625642 281.289361,175.149642 C280.265361,169.073642 267.205361,162.441642 265.721361,161.705642 C265.161361,161.425642 264.485361,161.657642 264.209361,162.213642 C263.933361,162.769642 264.161361,163.445642 264.717361,163.725642 C268.469361,165.585642 278.357361,171.329642 279.065361,175.525642 C279.197361,176.289642 278.977361,176.929642 278.377361,177.545642 C276.365361,179.593642 264.417361,173.505642 253.877361,168.129642 C235.133361,158.577642 213.889361,147.749642 205.897361,155.833642 C205.365361,156.249642 202.849361,158.429642 202.793361,162.461642 C202.713361,168.033642 207.269361,174.337642 216.369361,181.225642 C217.309361,181.893642 219.817361,184.033642 220.125361,185.893642 C220.209361,186.413642 220.113361,186.845642 219.813361,187.257642 C218.421361,189.181642 212.361361,187.485642 209.637361,186.361642 C208.861361,186.045642 190.565361,178.685642 182.381361,185.837642 C182.229361,185.969642 182.089361,186.101642 181.949361,186.237642 C179.869361,185.453642 177.533361,184.981642 174.937361,185.013642 C172.629361,185.041642 170.561361,185.625642 168.765361,186.753642 C166.969361,185.625642 164.905361,185.041642 162.597361,185.013642 C160.001361,184.993642 157.665361,185.449642 155.581361,186.237642 C155.445361,186.097642 155.301361,185.965642 155.153361,185.837642 C146.965361,178.681642 128.669361,186.045642 127.889361,186.361642 C125.173361,187.485642 119.113361,189.185642 117.721361,187.253642 C117.421361,186.841642 117.321361,186.409642 117.405361,185.893642 C117.713361,184.033642 120.225361,181.893642 121.193361,181.201642 C130.261361,174.337642 134.817361,168.033642 134.737361,162.461642 C134.681361,158.425642 132.165361,156.249642 131.637361,155.833642 C123.645361,147.749642 102.401361,158.573642 83.6533606,168.129642 C73.1133606,173.501642 61.1653606,179.593642 59.1533606,177.541642 C58.5573606,176.929642 58.3333606,176.289642 58.4653606,175.525642 C59.1733606,171.329642 69.0613606,165.585642 72.8133606,163.721642 C73.3733606,163.445642 73.6013606,162.769642 73.3213606,162.213642 C73.0453606,161.653642 72.3693606,161.425642 71.8133606,161.701642 C70.3253606,162.437642 57.2693606,169.073642 56.2413606,175.149642 C55.9933606,176.625642 56.4453606,177.997642 57.5453606,179.121642 C60.5653606,182.201642 69.3773606,177.937642 84.6773606,170.137642" id="Fill-61"></path>
            <path d="M176.441572,123.08 C171.189572,117.956 171.377572,109.528 171.377572,109.528 C171.505572,100.096 176.613572,10.852 176.609572,6.172 C176.617572,5.972 176.625572,5.768 176.633572,5.572 C176.789572,2.2 173.445572,0.572 168.909572,0.6 C164.357572,0.584 161.017572,2.2 161.185572,5.56 C161.197572,5.856 161.209572,6.168 161.217572,6.476 C161.229572,6.884 161.253572,7.536 161.289572,8.412 C161.289572,8.436 161.289572,8.464 161.289572,8.488 L161.293572,8.488 C161.929572,23.464 166.329572,100.784 166.445572,109.528 C166.445572,109.528 166.637572,117.956 161.385572,123.08 C156.165572,128.172 155.229572,135.072 159.489572,177.668 C159.489572,177.668 159.677572,179.612 160.477572,179.544 C161.301572,179.472 161.361572,178.772 161.361572,177.352 C161.361572,175.932 161.125572,143.396 161.125572,143.396 C161.125572,143.396 160.949572,141.46 162.253572,141.44 C162.253572,141.44 163.729572,141.132 163.741572,143.276 C163.749572,145.288 164.845572,177.708 164.845572,177.708 C164.845572,177.708 164.737572,179.544 165.685572,179.544 C166.629572,179.544 166.865572,178.892 166.865572,177.472 C166.865572,176.052 167.457572,143.156 167.457572,143.156 C167.457572,143.156 167.413572,141.54 168.913572,141.5 C170.413572,141.54 170.365572,143.156 170.365572,143.156 C170.365572,143.156 170.957572,176.052 170.957572,177.472 C170.957572,178.892 171.193572,179.544 172.141572,179.544 C173.089572,179.544 172.981572,177.708 172.981572,177.708 C172.981572,177.708 174.077572,145.288 174.085572,143.276 C174.097572,141.132 175.573572,141.44 175.573572,141.44 C176.873572,141.46 176.697572,143.396 176.697572,143.396 C176.697572,143.396 176.461572,175.932 176.461572,177.352 C176.461572,178.772 176.525572,179.472 177.349572,179.544 C178.149572,179.612 178.337572,177.668 178.337572,177.668 C182.597572,135.072 181.661572,128.172 176.441572,123.08" id="Fill-63"></path>
        </g>
    </g>
</svg>